<svg width="90" height="90" viewBox="0 0 90 90" fill="none" xmlns="http://www.w3.org/2000/svg">
<path d="M34.0541 7.5H39.0541" stroke="#333333" stroke-width="4.5" stroke-linecap="round"/>
<path d="M48.1792 42H55.6792" stroke="#333333" stroke-width="4.5" stroke-linecap="round"/>
<path d="M66.5708 55.6235L65.1444 42.4295" stroke="#333333" stroke-width="4.5" stroke-linecap="round"/>
<path d="M52.6792 51L63.9292 51" stroke="#333333" stroke-width="4.5" stroke-linecap="round"/>
<path d="M36.9292 22.5L40.6792 22.5" stroke="#333333" stroke-width="4.5" stroke-linecap="round"/>
<path d="M42.1792 28.75V11.25" stroke="#333333" stroke-width="4.5" stroke-linecap="round"/>
<path d="M30.9292 28.75V11.25" stroke="#333333" stroke-width="4.5" stroke-linecap="round"/>
<path d="M23.4292 78.75L23.4292 42.5" stroke="#333333" stroke-width="4.5" stroke-linecap="round"/>
<path d="M55.6166 82.5L55.6166 66.25" stroke="#333333" stroke-width="4.5" stroke-linecap="round"/>
<path d="M27.1792 82.5H64.6792" stroke="#333333" stroke-width="4.5" stroke-linecap="round"/>
<path d="M23.4292 67.5H38.4292" stroke="#333333" stroke-width="4.5" stroke-linecap="round"/>
<path d="M23.4292 44.375H38.4292" stroke="#333333" stroke-width="4.5" stroke-linecap="round"/>
<path d="M30.9292 11.25C30.9292 9.17893 32.6081 7.5 34.6792 7.5" stroke="#333333" stroke-width="4.5" stroke-linecap="round"/>
<path d="M42.1792 11.25C42.1792 9.17893 40.5002 7.5 38.4292 7.5" stroke="#333333" stroke-width="4.5" stroke-linecap="round"/>
<path d="M23.4292 43.125C23.4292 35.996 25.5292 31.0969 30.9292 28.75" stroke="#333333" stroke-width="4.5" stroke-linecap="round"/>
<path d="M49.6792 41.875C49.3792 35.5859 47.5792 30.9375 42.1792 28.75" stroke="#333333" stroke-width="4.5" stroke-linecap="round"/>
<path d="M66.5542 55.625C66.5542 61.493 61.6573 66.25 55.6167 66.25C49.5761 66.25 44.6792 61.493 44.6792 55.625" stroke="#333333" stroke-width="4.5" stroke-linecap="round"/>
<path d="M45.9292 43.75C45.9292 42.7145 47.0484 41.875 48.4292 41.875" stroke="#333333" stroke-width="4.5" stroke-linecap="round"/>
<path d="M27.4917 82.5C24.7302 82.5 23.4292 81.1989 23.4292 78.4375" stroke="#333333" stroke-width="4.5" stroke-linecap="round"/>
<path d="M44.6792 55.3333L45.9292 43.7708" stroke="#333333" stroke-width="4.5" stroke-linecap="round"/>
</svg>
