<svg width="90" height="90" viewBox="0 0 90 90" fill="none" xmlns="http://www.w3.org/2000/svg">
<rect x="24.5708" y="44" width="15" height="23" fill="#A50025"/>
<rect x="31.5708" y="8" width="9" height="14" fill="#A50025"/>
<rect x="45.5708" y="50" width="19" height="10" fill="#A50025"/>
<ellipse cx="55.5708" cy="60" rx="8" ry="4" fill="#A50025"/>
<path d="M33.625 7H38.625" stroke="#333333" stroke-width="4.5" stroke-linecap="round"/>
<path d="M47.75 41.5H55.25" stroke="#333333" stroke-width="4.5" stroke-linecap="round"/>
<path d="M66.1417 55.1235L64.7153 41.9295" stroke="#333333" stroke-width="4.5" stroke-linecap="round"/>
<path d="M52.25 50.5L63.5 50.5" stroke="#333333" stroke-width="4.5" stroke-linecap="round"/>
<path d="M36.5 22L40.25 22" stroke="#333333" stroke-width="4.5" stroke-linecap="round"/>
<path d="M41.75 28.25V10.75" stroke="#333333" stroke-width="4.5" stroke-linecap="round"/>
<path d="M30.5 28.25V10.75" stroke="#333333" stroke-width="4.5" stroke-linecap="round"/>
<path d="M23 78.25L23 42" stroke="#333333" stroke-width="4.5" stroke-linecap="round"/>
<path d="M55.1875 82L55.1875 65.75" stroke="#333333" stroke-width="4.5" stroke-linecap="round"/>
<path d="M26.75 82H64.25" stroke="#333333" stroke-width="4.5" stroke-linecap="round"/>
<path d="M23 67H38" stroke="#333333" stroke-width="4.5" stroke-linecap="round"/>
<path d="M23 43.875H38" stroke="#333333" stroke-width="4.5" stroke-linecap="round"/>
<path d="M30.5 10.75C30.5 8.67893 32.1789 7 34.25 7" stroke="#333333" stroke-width="4.5" stroke-linecap="round"/>
<path d="M41.75 10.75C41.75 8.67893 40.0711 7 38 7" stroke="#333333" stroke-width="4.5" stroke-linecap="round"/>
<path d="M23 42.625C23 35.496 25.1 30.5969 30.5 28.25" stroke="#333333" stroke-width="4.5" stroke-linecap="round"/>
<path d="M49.25 41.375C48.95 35.0859 47.15 30.4375 41.75 28.25" stroke="#333333" stroke-width="4.5" stroke-linecap="round"/>
<path d="M66.125 55.125C66.125 60.993 61.2281 65.75 55.1875 65.75C49.1469 65.75 44.25 60.993 44.25 55.125" stroke="#333333" stroke-width="4.5" stroke-linecap="round"/>
<path d="M45.5 43.25C45.5 42.2145 46.6193 41.375 48 41.375" stroke="#333333" stroke-width="4.5" stroke-linecap="round"/>
<path d="M27.0625 82C24.3011 82 23 80.6989 23 77.9375" stroke="#333333" stroke-width="4.5" stroke-linecap="round"/>
<path d="M44.25 54.8333L45.5 43.2708" stroke="#333333" stroke-width="4.5" stroke-linecap="round"/>
</svg>
