<svg width="90" height="90" viewBox="0 0 90 90" fill="none" xmlns="http://www.w3.org/2000/svg">
<path d="M34.0537 7.5H39.0537" stroke="#A50025" stroke-width="4.5" stroke-linecap="round"/>
<path d="M48.1787 42H55.6787" stroke="#A50025" stroke-width="4.5" stroke-linecap="round"/>
<path d="M66.5703 55.6235L65.1439 42.4295" stroke="#A50025" stroke-width="4.5" stroke-linecap="round"/>
<path d="M52.6787 51L63.9287 51" stroke="#A50025" stroke-width="4.5" stroke-linecap="round"/>
<path d="M36.9287 22.5L40.6787 22.5" stroke="#A50025" stroke-width="4.5" stroke-linecap="round"/>
<path d="M42.1787 28.75V11.25" stroke="#A50025" stroke-width="4.5" stroke-linecap="round"/>
<path d="M30.9287 28.75V11.25" stroke="#A50025" stroke-width="4.5" stroke-linecap="round"/>
<path d="M23.4287 78.75L23.4287 42.5" stroke="#A50025" stroke-width="4.5" stroke-linecap="round"/>
<path d="M55.6162 82.5L55.6162 66.25" stroke="#A50025" stroke-width="4.5" stroke-linecap="round"/>
<path d="M27.1787 82.5H64.6787" stroke="#A50025" stroke-width="4.5" stroke-linecap="round"/>
<path d="M23.4287 67.5H38.4287" stroke="#A50025" stroke-width="4.5" stroke-linecap="round"/>
<path d="M23.4287 44.375H38.4287" stroke="#A50025" stroke-width="4.5" stroke-linecap="round"/>
<path d="M30.9287 11.25C30.9287 9.17893 32.6076 7.5 34.6787 7.5" stroke="#A50025" stroke-width="4.5" stroke-linecap="round"/>
<path d="M42.1787 11.25C42.1787 9.17893 40.4998 7.5 38.4287 7.5" stroke="#A50025" stroke-width="4.5" stroke-linecap="round"/>
<path d="M23.4287 43.125C23.4287 35.996 25.5287 31.0969 30.9287 28.75" stroke="#A50025" stroke-width="4.5" stroke-linecap="round"/>
<path d="M49.6787 41.875C49.3787 35.5859 47.5787 30.9375 42.1787 28.75" stroke="#A50025" stroke-width="4.5" stroke-linecap="round"/>
<path d="M66.5537 55.625C66.5537 61.493 61.6568 66.25 55.6162 66.25C49.5756 66.25 44.6787 61.493 44.6787 55.625" stroke="#A50025" stroke-width="4.5" stroke-linecap="round"/>
<path d="M45.9287 43.75C45.9287 42.7145 47.048 41.875 48.4287 41.875" stroke="#A50025" stroke-width="4.5" stroke-linecap="round"/>
<path d="M27.4912 82.5C24.7298 82.5 23.4287 81.1989 23.4287 78.4375" stroke="#A50025" stroke-width="4.5" stroke-linecap="round"/>
<path d="M44.6787 55.3333L45.9287 43.7708" stroke="#A50025" stroke-width="4.5" stroke-linecap="round"/>
</svg>
