<svg width="90" height="90" viewBox="0 0 90 90" fill="none" xmlns="http://www.w3.org/2000/svg">
<ellipse cx="56.3626" cy="53.4871" rx="20" ry="26" transform="rotate(7.8469 56.3626 53.4871)" fill="#76D750"/>
<ellipse cx="20" cy="26" rx="20" ry="26" transform="matrix(0.990636 -0.136527 -0.136527 -0.990636 17.0996 81.9741)" fill="#76D750"/>
<path d="M68.0242 8.84454L63.779 24.7789L47.8447 29.0241L52.0899 13.0898L68.0242 8.84454Z" fill="#0CA74B"/>
<rect x="37.4609" y="14.1038" width="7.65847" height="18.3834" transform="rotate(-15 37.4609 14.1038)" fill="#795328"/>
<g clip-path="url(#clip0_1454_3031)">
<path d="M59.6687 46.6134C59.8152 46.4953 59.9721 46.3907 60.1375 46.3009L60.325 46.1446C60.5892 45.8775 60.7973 45.5601 60.9368 45.2113C61.0764 44.8624 61.1446 44.4891 61.1375 44.1134C61.1179 43.3153 60.7937 42.555 60.2312 41.9884C59.9756 41.7304 59.6713 41.5257 59.3361 41.386C59.0009 41.2463 58.6413 41.1743 58.2781 41.1743C57.9149 41.1743 57.5553 41.2463 57.2201 41.386C56.8849 41.5257 56.5806 41.7304 56.325 41.9884C56.0119 42.2655 55.763 42.6076 55.5957 42.9908C55.4284 43.374 55.3466 43.7891 55.3562 44.2071C55.342 44.6062 55.4158 45.0034 55.5724 45.3707C55.729 45.738 55.9646 46.0662 56.2625 46.3321C56.5268 46.634 56.854 46.8743 57.2211 47.0362C57.5882 47.1982 57.9863 47.2779 58.3875 47.2696C58.6345 47.2536 58.8757 47.187 59.096 47.0742C59.3164 46.9613 59.5113 46.8045 59.6687 46.6134V46.6134Z" fill="#333333"/>
<path d="M75.2315 38.4258C72.8652 33.3675 68.5975 29.448 63.3565 27.5196C63.8265 27.1271 64.2653 26.6987 64.669 26.2383C66.7833 24.1134 68.3074 21.4742 69.091 18.5808C69.8747 15.6875 69.8908 12.6398 69.1378 9.73834C69.0312 9.34126 68.8221 8.97919 68.5314 8.68848C68.2407 8.39777 67.8786 8.18864 67.4815 8.08209C64.5643 7.30514 61.4943 7.30599 58.5775 8.08454C55.6606 8.8631 52.9986 10.3922 50.8565 12.5196C49.8088 13.6118 48.9152 14.8419 48.2003 16.1758C47.6241 14.6474 46.9562 13.1551 46.2003 11.7071C45.8381 11.014 45.3136 10.419 44.6714 9.97271C44.0293 9.52647 43.2886 9.24234 42.5128 9.14459C41.7487 9.04814 40.9727 9.13062 40.246 9.38551C39.5192 9.64041 38.8617 10.0607 38.3253 10.6133L35.2003 13.7383C34.3508 14.6089 33.8599 15.7671 33.8251 16.983C33.7904 18.1988 34.2144 19.3832 35.0128 20.3008C36.9717 22.4573 38.339 25.0842 38.9815 27.9258C38.339 27.6593 37.6816 27.4297 37.0128 27.2383C34.0914 26.38 31.007 26.2328 28.0171 26.8091C25.0272 27.3853 22.2185 28.6682 19.8253 30.5508C19.3764 30.9238 19.0828 31.4507 19.0019 32.0287C18.921 32.6066 19.0586 33.194 19.3878 33.6758C19.7803 34.1587 20.3445 34.4708 20.9622 34.5465C21.5798 34.6223 22.2028 34.4558 22.7003 34.0821C24.254 32.8783 26.0263 31.9869 27.919 31.4571C30.5448 30.8249 33.2896 30.8841 35.8857 31.629C38.4817 32.3739 40.8404 33.7789 42.7315 35.7071C43.158 36.098 43.7155 36.3148 44.294 36.3148C44.8726 36.3148 45.4301 36.098 45.8565 35.7071C47.7667 33.8011 50.1378 32.4222 52.7391 31.7048C55.3404 30.9874 58.0832 30.9559 60.7003 31.6133C69.8565 34.0821 75.169 45.0821 72.5753 56.1758C70.5522 64.1654 65.6286 71.1164 58.7628 75.6758C57.4737 76.5685 56.0177 77.1919 54.482 77.5087C52.9463 77.8255 51.3625 77.8292 49.8253 77.5196C49.1311 77.3222 48.4605 77.0497 47.8253 76.7071C46.7439 76.0935 45.5218 75.771 44.2784 75.771C43.0351 75.771 41.813 76.0935 40.7315 76.7071C40.0964 77.0497 39.4257 77.3222 38.7315 77.5196C37.1994 77.8285 35.6206 77.8244 34.0901 77.5075C32.5595 77.1907 31.1089 76.5676 29.8253 75.6758C22.9435 71.1265 18.007 64.1729 15.9815 56.1758C14.9815 52.0511 15.111 47.7332 16.3565 43.6758C16.5328 43.0791 16.4678 42.4371 16.1756 41.8878C15.8834 41.3384 15.3874 40.9257 14.794 40.7383C14.2015 40.563 13.5636 40.6289 13.0194 40.9215C12.4751 41.2141 12.0684 41.7099 11.8878 42.3008C10.3816 47.1564 10.2196 52.3293 11.419 57.2696C13.7639 66.4923 19.4705 74.506 27.419 79.7383C30.1712 81.4806 33.3497 82.432 36.6065 82.4883C37.7558 82.4854 38.9001 82.3385 40.0128 82.0508C41.105 81.7591 42.1552 81.3285 43.1378 80.7696C43.5189 80.5532 43.9496 80.4394 44.3878 80.4394C44.826 80.4394 45.2567 80.5532 45.6378 80.7696C46.6167 81.3361 47.668 81.7671 48.7628 82.0508C50.8972 82.5153 53.1031 82.5472 55.2501 82.1447C57.3971 81.7421 59.4416 80.9133 61.2628 79.7071C69.2018 74.4713 74.8973 66.4574 77.2316 57.2383C78.7572 50.9247 78.0506 44.2776 75.2315 38.4258V38.4258ZM57.0128 23.4883C57.4517 23.0489 57.6982 22.4532 57.6982 21.8321C57.6982 21.211 57.4517 20.6153 57.0128 20.1758C56.5733 19.7369 55.9776 19.4904 55.3565 19.4904C54.7355 19.4904 54.1398 19.7369 53.7003 20.1758L50.5753 23.3008C50.8804 20.479 52.1368 17.845 54.1378 15.8321V15.8321C55.5224 14.4442 57.214 13.4014 59.076 12.788C60.938 12.1745 62.9181 12.0077 64.8565 12.3008C65.1691 14.2515 65.0148 16.2484 64.4064 18.1279C63.798 20.0073 62.7528 21.7159 61.3565 23.1133C59.3562 25.1195 56.7338 26.3866 53.919 26.7071L57.0128 23.4883ZM41.044 13.1758L41.9503 13.7383C44.5018 18.678 45.9316 24.1199 46.1378 29.6758C45.544 30.0821 44.9503 30.4883 44.3878 30.9571L44.044 30.6758C43.8909 25.619 42.0543 20.758 38.8253 16.8633L41.9503 13.7383L41.294 13.0821L41.044 13.1758Z" fill="#333333"/>
</g>
<defs>
<clipPath id="clip0_1454_3031">
<rect width="75" height="75" fill="white" transform="translate(7.5 7.5)"/>
</clipPath>
</defs>
</svg>
