<svg width="90" height="90" viewBox="0 0 90 90" fill="none" xmlns="http://www.w3.org/2000/svg">
<g clip-path="url(#clip0_1246_1399)">
<path d="M59.669 46.6134C59.8155 46.4953 59.9724 46.3907 60.1377 46.3009L60.3252 46.1446C60.5895 45.8775 60.7975 45.5601 60.9371 45.2113C61.0766 44.8624 61.1449 44.4891 61.1377 44.1134C61.1182 43.3153 60.7939 42.555 60.2315 41.9884C59.9758 41.7304 59.6716 41.5257 59.3364 41.386C59.0011 41.2463 58.6416 41.1743 58.2784 41.1743C57.9152 41.1743 57.5556 41.2463 57.2204 41.386C56.8851 41.5257 56.5809 41.7304 56.3252 41.9884C56.0121 42.2655 55.7633 42.6076 55.5959 42.9908C55.4286 43.374 55.3469 43.7891 55.3565 44.2071C55.3423 44.6062 55.4161 45.0034 55.5727 45.3707C55.7293 45.738 55.9649 46.0662 56.2627 46.3321C56.5271 46.634 56.8543 46.8743 57.2214 47.0362C57.5885 47.1982 57.9866 47.2779 58.3877 47.2696C58.6348 47.2536 58.876 47.187 59.0963 47.0742C59.3167 46.9613 59.5116 46.8045 59.669 46.6134V46.6134Z" fill="white"/>
<path d="M75.2315 38.4258C72.8652 33.3675 68.5975 29.448 63.3565 27.5196C63.8265 27.1271 64.2653 26.6987 64.669 26.2383C66.7833 24.1134 68.3074 21.4742 69.091 18.5808C69.8746 15.6875 69.8907 12.6398 69.1378 9.73834C69.0312 9.34126 68.8221 8.97919 68.5314 8.68848C68.2407 8.39777 67.8786 8.18864 67.4815 8.08209C64.5642 7.30514 61.4943 7.30599 58.5774 8.08454C55.6606 8.8631 52.9986 10.3922 50.8565 12.5196C49.8088 13.6118 48.9151 14.8419 48.2003 16.1758C47.624 14.6474 46.9562 13.1551 46.2003 11.7071C45.8381 11.014 45.3135 10.419 44.6714 9.97271C44.0292 9.52647 43.2886 9.24234 42.5128 9.14459C41.7487 9.04814 40.9727 9.13062 40.2459 9.38551C39.5192 9.64041 38.8617 10.0607 38.3253 10.6133L35.2003 13.7383C34.3507 14.6089 33.8598 15.7671 33.8251 16.983C33.7904 18.1988 34.2143 19.3832 35.0128 20.3008C36.9717 22.4573 38.339 25.0842 38.9815 27.9258C38.3389 27.6593 37.6816 27.4297 37.0128 27.2383C34.0913 26.38 31.007 26.2328 28.0171 26.8091C25.0272 27.3853 22.2185 28.6682 19.8253 30.5508C19.3764 30.9238 19.0828 31.4507 19.0018 32.0287C18.9209 32.6066 19.0585 33.194 19.3878 33.6758C19.7802 34.1587 20.3445 34.4708 20.9621 34.5465C21.5798 34.6223 22.2027 34.4558 22.7003 34.0821C24.254 32.8783 26.0262 31.9869 27.919 31.4571C30.5448 30.8249 33.2896 30.8841 35.8856 31.629C38.4817 32.3739 40.8404 33.7789 42.7315 35.7071C43.158 36.098 43.7155 36.3148 44.294 36.3148C44.8725 36.3148 45.43 36.098 45.8565 35.7071C47.7666 33.8011 50.1378 32.4222 52.7391 31.7048C55.3404 30.9874 58.0832 30.9559 60.7003 31.6133C69.8565 34.0821 75.169 45.0821 72.5753 56.1758C70.5521 64.1654 65.6285 71.1164 58.7628 75.6758C57.4736 76.5685 56.0176 77.1919 54.4819 77.5087C52.9463 77.8255 51.3624 77.8292 49.8253 77.5196C49.1311 77.3222 48.4604 77.0497 47.8253 76.7071C46.7438 76.0935 45.5217 75.771 44.2784 75.771C43.035 75.771 41.8129 76.0935 40.7315 76.7071C40.0963 77.0497 39.4257 77.3222 38.7315 77.5196C37.1994 77.8285 35.6206 77.8244 34.09 77.5075C32.5595 77.1907 31.1089 76.5676 29.8253 75.6758C22.9435 71.1265 18.0069 64.1729 15.9815 56.1758C14.9814 52.0511 15.111 47.7332 16.3565 43.6758C16.5328 43.0791 16.4678 42.4371 16.1756 41.8878C15.8834 41.3384 15.3873 40.9257 14.794 40.7383C14.2014 40.563 13.5636 40.6289 13.0193 40.9215C12.4751 41.2141 12.0684 41.7099 11.8878 42.3008C10.3815 47.1564 10.2195 52.3293 11.419 57.2696C13.7639 66.4923 19.4704 74.506 27.419 79.7383C30.1712 81.4806 33.3497 82.432 36.6065 82.4883C37.7558 82.4854 38.9001 82.3385 40.0128 82.0508C41.1049 81.7591 42.1552 81.3285 43.1378 80.7696C43.5188 80.5532 43.9495 80.4394 44.3878 80.4394C44.826 80.4394 45.2567 80.5532 45.6378 80.7696C46.6167 81.3361 47.6679 81.7671 48.7628 82.0508C50.8972 82.5153 53.1031 82.5472 55.2501 82.1447C57.3971 81.7421 59.4416 80.9133 61.2628 79.7071C69.2017 74.4713 74.8972 66.4574 77.2315 57.2383C78.7572 50.9247 78.0505 44.2776 75.2315 38.4258V38.4258ZM57.0128 23.4883C57.4517 23.0489 57.6982 22.4532 57.6982 21.8321C57.6982 21.211 57.4517 20.6153 57.0128 20.1758C56.5733 19.7369 55.9776 19.4904 55.3565 19.4904C54.7354 19.4904 54.1397 19.7369 53.7003 20.1758L50.5753 23.3008C50.8804 20.479 52.1368 17.845 54.1378 15.8321V15.8321C55.5223 14.4442 57.2139 13.4014 59.0759 12.788C60.9379 12.1745 62.9181 12.0077 64.8565 12.3008C65.169 14.2515 65.0148 16.2484 64.4064 18.1279C63.798 20.0073 62.7528 21.7159 61.3565 23.1133C59.3562 25.1195 56.7338 26.3866 53.919 26.7071L57.0128 23.4883ZM41.044 13.1758L41.9503 13.7383C44.5017 18.678 45.9316 24.1199 46.1378 29.6758C45.544 30.0821 44.9503 30.4883 44.3878 30.9571L44.044 30.6758C43.8909 25.619 42.0542 20.758 38.8253 16.8633L41.9503 13.7383L41.294 13.0821L41.044 13.1758Z" fill="white"/>
</g>
<defs>
<clipPath id="clip0_1246_1399">
<rect width="75" height="75" fill="white" transform="translate(7.5 7.5)"/>
</clipPath>
</defs>
</svg>
