<svg width="90" height="90" viewBox="0 0 90 90" fill="none" xmlns="http://www.w3.org/2000/svg">
<line x1="70.0766" y1="13.1342" x2="70.0766" y2="76.3761" stroke="white" stroke-width="4.5" stroke-linecap="round"/>
<line x1="70.0766" y1="13.1342" x2="70.0766" y2="76.3761" stroke="white" stroke-width="4.5" stroke-linecap="round"/>
<line x1="70.0766" y1="13.1342" x2="70.0766" y2="76.3761" stroke="white" stroke-width="4.5" stroke-linecap="round"/>
<line x1="29.4798" y1="43.9868" x2="29.4798" y2="54.0029" stroke="white" stroke-width="4.5" stroke-linecap="round"/>
<line x1="29.4798" y1="43.9868" x2="29.4798" y2="54.0029" stroke="white" stroke-width="4.5" stroke-linecap="round"/>
<line x1="29.4798" y1="43.9868" x2="29.4798" y2="54.0029" stroke="white" stroke-width="4.5" stroke-linecap="round"/>
<line x1="29.4798" y1="19.1885" x2="29.4798" y2="25.5756" stroke="white" stroke-width="4.5" stroke-linecap="round"/>
<line x1="29.4798" y1="19.1885" x2="29.4798" y2="25.5756" stroke="white" stroke-width="4.5" stroke-linecap="round"/>
<line x1="29.4798" y1="19.1885" x2="29.4798" y2="25.5756" stroke="white" stroke-width="4.5" stroke-linecap="round"/>
<line x1="22.0766" y1="13.1342" x2="22.0766" y2="76.3761" stroke="white" stroke-width="4.5" stroke-linecap="round"/>
<line x1="22.0766" y1="13.1342" x2="22.0766" y2="76.3761" stroke="white" stroke-width="4.5" stroke-linecap="round"/>
<line x1="22.0766" y1="13.1342" x2="22.0766" y2="76.3761" stroke="white" stroke-width="4.5" stroke-linecap="round"/>
<line x1="27.3266" y1="7.13416" x2="56.5766" y2="7.13415" stroke="white" stroke-width="4.5" stroke-linecap="round"/>
<line x1="27.3266" y1="7.13416" x2="56.5766" y2="7.13415" stroke="white" stroke-width="4.5" stroke-linecap="round"/>
<line x1="27.3266" y1="7.13416" x2="56.5766" y2="7.13415" stroke="white" stroke-width="4.5" stroke-linecap="round"/>
<line x1="24.0363" y1="34.6481" x2="67.9234" y2="34.6481" stroke="white" stroke-width="4.5" stroke-linecap="round"/>
<line x1="24.0363" y1="34.6481" x2="67.9234" y2="34.6481" stroke="white" stroke-width="4.5" stroke-linecap="round"/>
<line x1="24.0363" y1="34.6481" x2="67.9234" y2="34.6481" stroke="white" stroke-width="4.5" stroke-linecap="round"/>
<line x1="27.0605" y1="80.6158" x2="64.8993" y2="80.6158" stroke="white" stroke-width="4.5" stroke-linecap="round"/>
<line x1="27.0605" y1="80.6158" x2="64.8993" y2="80.6158" stroke="white" stroke-width="4.5" stroke-linecap="round"/>
<line x1="27.0605" y1="80.6158" x2="64.8993" y2="80.6158" stroke="white" stroke-width="4.5" stroke-linecap="round"/>
<path d="M22.0766 13.1342C22.0766 10.2215 24.1512 7.13416 27.3266 7.13416" stroke="white" stroke-width="4.5" stroke-linecap="round"/>
<path d="M70.0766 12.3842C70.0766 9.81273 68.4695 7.88416 65.5766 7.88416" stroke="white" stroke-width="4.5" stroke-linecap="round"/>
<path d="M22.0766 76.1342C22.0766 78.7056 23.6837 80.6342 26.5766 80.6342" stroke="white" stroke-width="4.5" stroke-linecap="round"/>
<path d="M70.0766 76.1342C70.0766 78.7056 68.4695 80.6342 65.5766 80.6342" stroke="white" stroke-width="4.5" stroke-linecap="round"/>
</svg>
