<svg width="90" height="90" viewBox="0 0 90 90" fill="none" xmlns="http://www.w3.org/2000/svg">
<rect x="23" y="7" width="46.163" height="74.2622" fill="#D6DDDF"/>
<line x1="70.0762" y1="13.1342" x2="70.0762" y2="76.3761" stroke="#333333" stroke-width="4.5" stroke-linecap="round"/>
<line x1="70.0762" y1="13.1342" x2="70.0762" y2="76.3761" stroke="#333333" stroke-width="4.5" stroke-linecap="round"/>
<line x1="70.0762" y1="13.1342" x2="70.0762" y2="76.3761" stroke="#333333" stroke-width="4.5" stroke-linecap="round"/>
<line x1="29.4795" y1="43.9868" x2="29.4795" y2="54.0029" stroke="#333333" stroke-width="4.5" stroke-linecap="round"/>
<line x1="29.4795" y1="43.9868" x2="29.4795" y2="54.0029" stroke="#333333" stroke-width="4.5" stroke-linecap="round"/>
<line x1="29.4795" y1="43.9868" x2="29.4795" y2="54.0029" stroke="#333333" stroke-width="4.5" stroke-linecap="round"/>
<line x1="29.4795" y1="19.1885" x2="29.4795" y2="25.5756" stroke="#333333" stroke-width="4.5" stroke-linecap="round"/>
<line x1="29.4795" y1="19.1885" x2="29.4795" y2="25.5756" stroke="#333333" stroke-width="4.5" stroke-linecap="round"/>
<line x1="29.4795" y1="19.1885" x2="29.4795" y2="25.5756" stroke="#333333" stroke-width="4.5" stroke-linecap="round"/>
<line x1="22.0762" y1="13.1342" x2="22.0762" y2="76.3761" stroke="#333333" stroke-width="4.5" stroke-linecap="round"/>
<line x1="22.0762" y1="13.1342" x2="22.0762" y2="76.3761" stroke="#333333" stroke-width="4.5" stroke-linecap="round"/>
<line x1="22.0762" y1="13.1342" x2="22.0762" y2="76.3761" stroke="#333333" stroke-width="4.5" stroke-linecap="round"/>
<line x1="27.3262" y1="7.13416" x2="56.5762" y2="7.13415" stroke="#333333" stroke-width="4.5" stroke-linecap="round"/>
<line x1="27.3262" y1="7.13416" x2="56.5762" y2="7.13415" stroke="#333333" stroke-width="4.5" stroke-linecap="round"/>
<line x1="27.3262" y1="7.13416" x2="56.5762" y2="7.13415" stroke="#333333" stroke-width="4.5" stroke-linecap="round"/>
<line x1="24.0361" y1="34.6481" x2="67.9232" y2="34.6481" stroke="#333333" stroke-width="4.5" stroke-linecap="round"/>
<line x1="24.0361" y1="34.6481" x2="67.9232" y2="34.6481" stroke="#333333" stroke-width="4.5" stroke-linecap="round"/>
<line x1="24.0361" y1="34.6481" x2="67.9232" y2="34.6481" stroke="#333333" stroke-width="4.5" stroke-linecap="round"/>
<line x1="27.0605" y1="80.6158" x2="64.8993" y2="80.6158" stroke="#333333" stroke-width="4.5" stroke-linecap="round"/>
<line x1="27.0605" y1="80.6158" x2="64.8993" y2="80.6158" stroke="#333333" stroke-width="4.5" stroke-linecap="round"/>
<line x1="27.0605" y1="80.6158" x2="64.8993" y2="80.6158" stroke="#333333" stroke-width="4.5" stroke-linecap="round"/>
<path d="M22.0762 13.1342C22.0762 10.2215 24.1508 7.13416 27.3262 7.13416" stroke="#333333" stroke-width="4.5" stroke-linecap="round"/>
<path d="M70.0762 12.3842C70.0762 9.81273 68.469 7.88416 65.5762 7.88416" stroke="#333333" stroke-width="4.5" stroke-linecap="round"/>
<path d="M22.0762 76.1342C22.0762 78.7056 23.6833 80.6342 26.5762 80.6342" stroke="#333333" stroke-width="4.5" stroke-linecap="round"/>
<path d="M70.0762 76.1342C70.0762 78.7056 68.469 80.6342 65.5762 80.6342" stroke="#333333" stroke-width="4.5" stroke-linecap="round"/>
</svg>
