<svg width="90" height="60" viewBox="0 0 90 60" fill="none" xmlns="http://www.w3.org/2000/svg">
<path d="M8.18721 34.836C13.6913 42.9393 22.5591 36.9765 36.1665 48.4435" stroke="#333333" stroke-width="4.5" stroke-linecap="round"/>
<path d="M36.167 48.4435C49.167 58.993 67.51 58.9931 80.349 47.3817" stroke="#333333" stroke-width="4.5" stroke-linecap="round"/>
<path d="M9.43919 21.6162C14.9433 29.7196 22.7408 22.3807 36.3483 33.8477" stroke="#333333" stroke-width="4.5" stroke-linecap="round"/>
<path d="M36.3486 33.8478C49.3487 44.3973 67.6916 44.3974 80.5307 32.786" stroke="#333333" stroke-width="4.5" stroke-linecap="round"/>
<path d="M9.25824 21.3814C5.28305 13.8897 13.3863 8.07977 18.5847 6.39795" stroke="#333333" stroke-width="4.5" stroke-linecap="round"/>
<path d="M18.8135 6.24509C46.6593 -1.18607 87.7364 4.84973 81.9482 24.5922" stroke="#333333" stroke-width="4.5" stroke-linecap="round"/>
<path d="M8.1875 18.1707L8.1875 34.3773" stroke="#333333" stroke-width="4.5" stroke-linecap="round"/>
<path d="M80.6582 32.8484V40.1872" stroke="#333333" stroke-width="4.5" stroke-linecap="round"/>
<path d="M36.9316 23.4778L47.7428 12.6666" stroke="#333333" stroke-width="4.5" stroke-linecap="round"/>
<path d="M36.9316 23.4778L47.7428 12.6666" stroke="#333333" stroke-width="4.5" stroke-linecap="round"/>
<path d="M36.9316 23.4778L47.7428 12.6666" stroke="#333333" stroke-width="4.5" stroke-linecap="round"/>
<path d="M27.7578 17.9736L35.0967 10.6348" stroke="#333333" stroke-width="4.5" stroke-linecap="round"/>
<path d="M27.7578 17.9736L35.0967 10.6348" stroke="#333333" stroke-width="4.5" stroke-linecap="round"/>
<path d="M27.7578 17.9736L35.0967 10.6348" stroke="#333333" stroke-width="4.5" stroke-linecap="round"/>
<path d="M17.667 16.3359L21.948 12.0549" stroke="#333333" stroke-width="4.5" stroke-linecap="round"/>
<path d="M17.667 16.3359L21.948 12.0549" stroke="#333333" stroke-width="4.5" stroke-linecap="round"/>
<path d="M17.667 16.3359L21.948 12.0549" stroke="#333333" stroke-width="4.5" stroke-linecap="round"/>
<path d="M67.2041 30.7079L72.7082 25.2038" stroke="#333333" stroke-width="4.5" stroke-linecap="round"/>
<path d="M67.2041 30.7079L72.7082 25.2038" stroke="#333333" stroke-width="4.5" stroke-linecap="round"/>
<path d="M67.2041 30.7079L72.7082 25.2038" stroke="#333333" stroke-width="4.5" stroke-linecap="round"/>
<path d="M57.5713 16.4456C62.0598 16.4456 64.6481 19.1653 64.6484 21.3811C64.6484 23.597 62.0601 26.3176 57.5713 26.3176C53.0826 26.3175 50.4951 23.5969 50.4951 21.3811C50.4954 19.1654 53.0829 16.4457 57.5713 16.4456Z" stroke="#333333" stroke-width="4.5"/>
</svg>
