<svg width="90" height="90" viewBox="0 0 90 90" fill="none" xmlns="http://www.w3.org/2000/svg">
<path d="M13.078 45.6302C18.5854 53.7335 22.0282 43.0883 35.6438 54.5553" stroke="#E27EA6" stroke-width="12" stroke-linecap="round"/>
<path d="M35.6436 54.5554C48.6514 65.105 61.2309 68.2415 74.0776 56.6301" stroke="#E27EA6" stroke-width="12" stroke-linecap="round"/>
<ellipse cx="56" cy="37.8252" rx="26.5" ry="19" fill="#F3C9D3"/>
<ellipse cx="36" cy="31.8252" rx="26.5" ry="13" fill="#F3C9D3"/>
<path d="M7.68721 49.6613C13.1913 57.7647 22.0591 51.8018 35.6665 63.2688" stroke="#333333" stroke-width="4.5" stroke-linecap="round"/>
<path d="M35.667 63.2688C48.667 73.8183 67.01 73.8184 79.849 62.207" stroke="#333333" stroke-width="4.5" stroke-linecap="round"/>
<path d="M8.93919 36.4416C14.4433 44.5449 22.2408 37.2061 35.8483 48.673" stroke="#333333" stroke-width="4.5" stroke-linecap="round"/>
<path d="M35.8486 48.673C48.8487 59.2226 67.1916 59.2226 80.0307 47.6112" stroke="#333333" stroke-width="4.5" stroke-linecap="round"/>
<path d="M8.75824 36.2067C4.78305 28.715 12.8863 22.9051 18.0847 21.2233" stroke="#333333" stroke-width="4.5" stroke-linecap="round"/>
<path d="M18.3135 21.0704C46.1593 13.6392 87.2364 19.675 81.4482 39.4175" stroke="#333333" stroke-width="4.5" stroke-linecap="round"/>
<path d="M7.6875 32.996L7.6875 49.2027" stroke="#333333" stroke-width="4.5" stroke-linecap="round"/>
<path d="M80.1582 47.6737V55.0126" stroke="#333333" stroke-width="4.5" stroke-linecap="round"/>
<path d="M36.4316 38.303L47.2428 27.4919" stroke="#333333" stroke-width="4.5" stroke-linecap="round"/>
<path d="M36.4316 38.303L47.2428 27.4919" stroke="#333333" stroke-width="4.5" stroke-linecap="round"/>
<path d="M36.4316 38.303L47.2428 27.4919" stroke="#333333" stroke-width="4.5" stroke-linecap="round"/>
<path d="M27.2578 32.7989L34.5967 25.46" stroke="#333333" stroke-width="4.5" stroke-linecap="round"/>
<path d="M27.2578 32.7989L34.5967 25.46" stroke="#333333" stroke-width="4.5" stroke-linecap="round"/>
<path d="M27.2578 32.7989L34.5967 25.46" stroke="#333333" stroke-width="4.5" stroke-linecap="round"/>
<path d="M17.167 31.1613L21.448 26.8803" stroke="#333333" stroke-width="4.5" stroke-linecap="round"/>
<path d="M17.167 31.1613L21.448 26.8803" stroke="#333333" stroke-width="4.5" stroke-linecap="round"/>
<path d="M17.167 31.1613L21.448 26.8803" stroke="#333333" stroke-width="4.5" stroke-linecap="round"/>
<path d="M66.7041 45.5333L72.2082 40.0291" stroke="#333333" stroke-width="4.5" stroke-linecap="round"/>
<path d="M66.7041 45.5333L72.2082 40.0291" stroke="#333333" stroke-width="4.5" stroke-linecap="round"/>
<path d="M66.7041 45.5333L72.2082 40.0291" stroke="#333333" stroke-width="4.5" stroke-linecap="round"/>
<path d="M57.0713 31.2709C61.5598 31.2709 64.1481 33.9906 64.1484 36.2064C64.1484 38.4223 61.5601 41.1429 57.0713 41.1429C52.5826 41.1428 49.9951 38.4222 49.9951 36.2064C49.9954 33.9907 52.5829 31.271 57.0713 31.2709Z" stroke="#333333" stroke-width="4.5"/>
</svg>
