<svg width="90" height="90" viewBox="0 0 90 90" fill="none" xmlns="http://www.w3.org/2000/svg">
<rect x="15" y="23" width="60" height="45" fill="#A50025"/>
<rect x="74" y="26" width="5" height="15" fill="#A50025"/>
<circle cx="75.5" cy="26.5" r="3.5" fill="#A50025"/>
<rect width="5" height="15" transform="matrix(-1 0 0 1 17 26)" fill="#A50025"/>
<circle cx="3.5" cy="3.5" r="3.5" transform="matrix(-1 0 0 1 19 23)" fill="#A50025"/>
<rect width="5" height="14" transform="matrix(1 0 0 -1 74 65)" fill="#A50025"/>
<circle cx="3.5" cy="3.5" r="3.5" transform="matrix(1 0 0 -1 72 68)" fill="#A50025"/>
<rect x="17" y="65" width="5" height="15" transform="rotate(180 17 65)" fill="#A50025"/>
<circle cx="15.5" cy="64.5" r="3.5" transform="rotate(180 15.5 64.5)" fill="#A50025"/>
<path d="M83 39.1138V31.3627C82.9422 28.1694 81.6223 25.1288 79.3289 22.9059C77.0354 20.6831 73.9551 19.4588 70.7615 19.5008H37.5293C36.952 19.4923 36.3946 19.7115 35.9776 20.1108C35.5607 20.5101 35.3177 21.0576 35.3013 21.6347C35.3053 21.9232 35.3662 22.208 35.4804 22.473C35.5946 22.7379 35.7599 22.9778 35.9668 23.1788C36.1737 23.3799 36.4181 23.5382 36.6862 23.6448C36.9543 23.7514 37.2408 23.8041 37.5293 23.8H53.9414V29.1033C53.9455 29.3877 54.0056 29.6684 54.1182 29.9296C54.2308 30.1907 54.3938 30.4271 54.5977 30.6253C54.8017 30.8234 55.0427 30.9795 55.307 31.0845C55.5713 31.1894 55.8537 31.2414 56.1381 31.2372C56.425 31.2456 56.7108 31.1968 56.9787 31.0936C57.2467 30.9905 57.4914 30.8352 57.6987 30.6366C57.9061 30.438 58.0718 30.2002 58.1864 29.937C58.301 29.6738 58.3621 29.3904 58.3661 29.1033V23.8H70.7615C71.7712 23.7833 72.7742 23.9658 73.7134 24.3369C74.6525 24.708 75.5094 25.2605 76.235 25.9627C76.9606 26.665 77.5408 27.5034 77.9423 28.4299C78.3439 29.3565 78.559 30.353 78.5753 31.3627V37.2309C76.7183 37.6771 75.0655 38.7355 73.8832 40.2355C72.7009 41.7355 72.058 43.5898 72.058 45.4998C72.058 47.4097 72.7009 49.264 73.8832 50.764C75.0655 52.264 76.7183 53.3224 78.5753 53.7686V53.7686V59.6368C78.5671 60.6532 78.3583 61.658 77.9608 62.5936C77.5633 63.5291 76.9849 64.3769 76.2589 65.0883C75.5329 65.7997 74.6735 66.3608 73.7301 66.7392C72.7867 67.1177 71.7779 67.3061 70.7615 67.2937H58.3661V63.2142C58.362 62.9257 58.3011 62.6409 58.1869 62.3759C58.0728 62.111 57.9075 61.8711 57.7006 61.67C57.4937 61.469 57.2492 61.3106 56.9811 61.2041C56.713 61.0975 56.4266 61.0448 56.1381 61.0489C55.8511 61.0448 55.5662 61.0977 55.2998 61.2046C55.0335 61.3116 54.7911 61.4704 54.5867 61.6719C54.3823 61.8734 54.22 62.1135 54.1092 62.3783C53.9984 62.643 53.9414 62.9272 53.9414 63.2142V67.2937H20.2385C19.2288 67.3061 18.2266 67.1196 17.2891 66.7446C16.3515 66.3697 15.497 65.8138 14.7743 65.1086C14.0516 64.4034 13.4749 63.5627 13.0772 62.6347C12.6794 61.7066 12.4684 60.7092 12.4561 59.6995V53.6117C14.3113 53.224 15.9776 52.212 17.1768 50.7443C18.3761 49.2766 19.0358 47.4421 19.046 45.5468C19.0237 43.6441 18.3754 41.8018 17.2013 40.3044C16.0272 38.807 14.3926 37.7379 12.5502 37.2623V37.2623V31.3627C12.5831 29.3455 13.4077 27.422 14.846 26.0073C16.2842 24.5925 18.221 23.7997 20.2385 23.8H24.2552C24.5422 23.8041 24.8271 23.7512 25.0935 23.6442C25.3598 23.5373 25.6022 23.3785 25.8066 23.177C26.011 22.9755 26.1733 22.7354 26.2841 22.4706C26.3949 22.2059 26.4519 21.9217 26.4519 21.6347C26.4478 21.3503 26.3877 21.0696 26.2751 20.8084C26.1625 20.5473 25.9996 20.3109 25.7956 20.1127C25.5916 19.9146 25.3506 19.7586 25.0863 19.6536C24.822 19.5486 24.5396 19.4967 24.2552 19.5008H20.2385C17.0449 19.4588 13.9646 20.6831 11.6711 22.9059C9.37772 25.1288 8.05779 28.1694 8 31.3627V39.1138C8.00409 39.4023 8.06497 39.6871 8.17916 39.952C8.29335 40.217 8.45861 40.4568 8.66551 40.6579C8.87241 40.859 9.11689 41.0173 9.38499 41.1239C9.65309 41.2305 9.93956 41.2832 10.228 41.279C10.7967 41.2707 11.3615 41.3746 11.8901 41.5845C12.4187 41.7945 12.9007 42.1066 13.3087 42.5029C13.7167 42.8992 14.0426 43.372 14.2678 43.8943C14.493 44.4166 14.6132 44.9781 14.6213 45.5468C14.6055 46.1019 14.4783 46.6482 14.2471 47.1532C14.016 47.6581 13.6857 48.1114 13.2758 48.4861C12.866 48.8609 12.385 49.1493 11.8614 49.3344C11.3378 49.5195 10.7823 49.5974 10.228 49.5636C9.93802 49.5594 9.65005 49.6127 9.38075 49.7205C9.11144 49.8282 8.86614 49.9882 8.659 50.1912C8.455 50.3862 8.29172 50.6197 8.1786 50.8783C8.06549 51.1369 8.00478 51.4153 8 51.6975V59.6995C8.04958 62.8984 9.36591 65.947 11.6602 68.1766C13.9545 70.4062 17.0395 71.6348 20.2385 71.5929H70.7615C73.9605 71.6348 77.0455 70.4062 79.3398 68.1766C81.6341 65.947 82.9504 62.8984 83 59.6995V51.9485C82.9952 51.6663 82.9345 51.3879 82.8214 51.1293C82.7083 50.8708 82.545 50.6372 82.341 50.4422C82.1339 50.2392 81.8886 50.0792 81.6193 49.9715C81.35 49.8638 81.062 49.8105 80.772 49.8146C79.6401 49.8146 78.5546 49.365 77.7542 48.5646C76.9538 47.7642 76.5042 46.6787 76.5042 45.5468C76.5042 44.4149 76.9538 43.3294 77.7542 42.529C78.5546 41.7287 79.6401 41.279 80.772 41.279C81.0604 41.2832 81.3469 41.2305 81.615 41.1239C81.8831 41.0173 82.1276 40.859 82.3345 40.6579C82.5414 40.4568 82.7066 40.217 82.8208 39.952C82.935 39.6871 82.9959 39.4023 83 39.1138Z" fill="#333333"/>
<path d="M56.1381 54.7729C56.425 54.7813 56.7108 54.7325 56.9787 54.6293C57.2466 54.5262 57.4914 54.3709 57.6987 54.1723C57.9061 53.9737 58.0718 53.7359 58.1864 53.4727C58.301 53.2095 58.3621 52.9261 58.3661 52.639V40.3378C58.3184 39.7829 58.0619 39.2669 57.6482 38.8941C57.2346 38.5212 56.6948 38.3194 56.1381 38.3294C55.8511 38.3252 55.5661 38.3782 55.2998 38.4851C55.0335 38.5921 54.7911 38.7509 54.5867 38.9524C54.3823 39.1539 54.2199 39.394 54.1092 39.6587C53.9984 39.9235 53.9414 40.2077 53.9414 40.4947V52.7959C53.989 53.3424 54.2423 53.8505 54.65 54.2174C55.0578 54.5844 55.5896 54.7829 56.1381 54.7729V54.7729Z" fill="#333333"/>
<path d="M45.5 55.3979C43.6589 56.5097 41.5406 57.0656 39.396 56.9999C37.2355 57.1773 35.0792 56.6101 33.2794 55.391C31.4796 54.172 30.1428 52.3731 29.4872 50.2882H26.75V47.3053H28.9398C28.9398 46.9462 28.9398 46.5871 28.9398 46.2005C28.9118 45.7221 28.9118 45.2426 28.9398 44.7642H26.75V41.7536H29.4872C30.1785 39.6977 31.5265 37.9314 33.3197 36.7318C35.113 35.5321 37.2501 34.9669 39.396 35.1249C41.4725 35.0767 43.5238 35.5918 45.3358 36.6163L44.2135 39.7926C42.7855 39.0649 41.2143 38.6685 39.615 38.6326C38.4391 38.5161 37.2553 38.7496 36.2094 39.3042C35.1636 39.8588 34.3016 40.7104 33.7299 41.7536H42.5985L41.9142 44.7642H32.9635C32.9345 45.1872 32.9345 45.6117 32.9635 46.0347C32.9354 46.4578 32.9354 46.8822 32.9635 47.3053H40.7646L40.1898 50.2882H33.7847C34.3417 51.3319 35.1929 52.1855 36.2307 52.741C37.2685 53.2966 38.4462 53.5291 39.615 53.4093C41.3434 53.5001 43.0592 53.0672 44.542 52.1664L45.5 55.3979Z" fill="#333333"/>
</svg>
