<svg width="90" height="76" viewBox="0 0 90 76" fill="none" xmlns="http://www.w3.org/2000/svg">
<g clip-path="url(#clip0_1454_3032)">
<path d="M82.5 32.613V24.862C82.4422 21.6686 81.1223 18.6281 78.8288 16.4052C76.5354 14.1824 73.4551 12.9581 70.2615 13.0001H37.0293C36.452 12.9916 35.8946 13.2107 35.4776 13.6101C35.0607 14.0094 34.8177 14.5568 34.8013 15.134C34.8053 15.4224 34.8662 15.7073 34.9804 15.9722C35.0946 16.2372 35.2599 16.477 35.4668 16.6781C35.6737 16.8792 35.9181 17.0375 36.1862 17.1441C36.4543 17.2507 36.7408 17.3034 37.0293 17.2992H53.4414V22.6026C53.4455 22.8869 53.5056 23.1677 53.6182 23.4288C53.7308 23.69 53.8938 23.9264 54.0977 24.1245C54.3017 24.3227 54.5427 24.4787 54.807 24.5837C55.0713 24.6887 55.3537 24.7406 55.6381 24.7365C55.925 24.7448 56.2108 24.696 56.4787 24.5929C56.7467 24.4898 56.9914 24.3344 57.1987 24.1359C57.4061 23.9373 57.5718 23.6995 57.6864 23.4363C57.801 23.173 57.8621 22.8896 57.8661 22.6026V17.2992H70.2615C71.2712 17.2826 72.2742 17.4651 73.2134 17.8362C74.1525 18.2073 75.0094 18.7597 75.735 19.462C76.4606 20.1643 77.0408 21.0027 77.4423 21.9292C77.8439 22.8557 78.059 23.8523 78.0753 24.862V30.7302C76.2183 31.1764 74.5655 32.2348 73.3832 33.7348C72.2009 35.2348 71.558 37.0891 71.558 38.999C71.558 40.9089 72.2009 42.7633 73.3832 44.2633C74.5655 45.7633 76.2183 46.8216 78.0753 47.2679V53.1361C78.0671 54.1525 77.8583 55.1573 77.4608 56.0928C77.0633 57.0283 76.4849 57.8761 75.7589 58.5876C75.0329 59.299 74.1735 59.86 73.2301 60.2385C72.2867 60.617 71.2779 60.8054 70.2615 60.793H57.8661V56.7135C57.862 56.425 57.8011 56.1401 57.687 55.8752C57.5728 55.6102 57.4075 55.3704 57.2006 55.1693C56.9937 54.9682 56.7492 54.8099 56.4811 54.7033C56.213 54.5968 55.9266 54.544 55.6381 54.5482C55.3511 54.544 55.0662 54.597 54.7998 54.7039C54.5335 54.8109 54.2911 54.9697 54.0867 55.1712C53.8823 55.3727 53.72 55.6128 53.6092 55.8775C53.4984 56.1423 53.4414 56.4265 53.4414 56.7135V60.793H19.7385C18.7288 60.8054 17.7266 60.6188 16.7891 60.2439C15.8515 59.869 14.997 59.313 14.2743 58.6078C13.5516 57.9027 12.9749 57.062 12.5772 56.1339C12.1794 55.2058 11.9684 54.2085 11.9561 53.1988V47.111C13.8113 46.7233 15.4776 45.7112 16.6768 44.2436C17.8761 42.7759 18.5358 40.9414 18.546 39.0461C18.5237 37.1434 17.8754 35.301 16.7013 33.8036C15.5272 32.3062 13.8926 31.2371 12.0502 30.7616V24.862C12.0831 22.8448 12.9077 20.9213 14.346 19.5065C15.7842 18.0917 17.721 17.299 19.7385 17.2992H23.7552C24.0422 17.3034 24.3271 17.2505 24.5935 17.1435C24.8598 17.0366 25.1022 16.8777 25.3066 16.6762C25.511 16.4748 25.6733 16.2347 25.7841 15.9699C25.8949 15.7051 25.9519 15.421 25.9519 15.134C25.9478 14.8496 25.8877 14.5688 25.7751 14.3077C25.6625 14.0466 25.4995 13.8102 25.2956 13.612C25.0916 13.4138 24.8506 13.2578 24.5863 13.1528C24.322 13.0478 24.0396 12.9959 23.7552 13.0001H19.7385C16.5449 12.9581 13.4646 14.1824 11.1711 16.4052C8.87772 18.6281 7.55779 21.6686 7.5 24.862L7.5 32.613C7.50409 32.9015 7.56497 33.1864 7.67916 33.4513C7.79335 33.7163 7.95861 33.9561 8.16551 34.1572C8.37241 34.3583 8.61689 34.5166 8.88499 34.6232C9.15309 34.7297 9.43956 34.7825 9.72803 34.7783C10.2967 34.77 10.8615 34.8738 11.3901 35.0838C11.9187 35.2938 12.4007 35.6059 12.8087 36.0022C13.2167 36.3985 13.5426 36.8713 13.7678 37.3936C13.993 37.9159 14.1132 38.4774 14.1213 39.0461C14.1055 39.6012 13.9783 40.1475 13.7471 40.6524C13.516 41.1574 13.1857 41.6107 12.7758 41.9854C12.366 42.3601 11.885 42.6486 11.3614 42.8337C10.8378 43.0188 10.2823 43.0967 9.72803 43.0628C9.43802 43.0587 9.15005 43.112 8.88075 43.2197C8.61144 43.3274 8.36614 43.4874 8.159 43.6904C7.955 43.8855 7.79172 44.119 7.6786 44.3776C7.56549 44.6361 7.50478 44.9145 7.5 45.1967V53.1988C7.54958 56.3977 8.86591 59.4462 11.1602 61.6759C13.4545 63.9055 16.5395 65.1341 19.7385 65.0921H70.2615C73.4605 65.1341 76.5455 63.9055 78.8398 61.6759C81.1341 59.4462 82.4504 56.3977 82.5 53.1988V45.4478C82.4952 45.1656 82.4345 44.8872 82.3214 44.6286C82.2083 44.3701 82.045 44.1365 81.841 43.9415C81.6339 43.7385 81.3886 43.5785 81.1193 43.4708C80.85 43.363 80.562 43.3097 80.272 43.3139C79.1401 43.3139 78.0546 42.8642 77.2542 42.0639C76.4538 41.2635 76.0042 40.178 76.0042 39.0461C76.0042 37.9142 76.4538 36.8287 77.2542 36.0283C78.0546 35.228 79.1401 34.7783 80.272 34.7783C80.5604 34.7825 80.8469 34.7297 81.115 34.6232C81.3831 34.5166 81.6276 34.3583 81.8345 34.1572C82.0414 33.9561 82.2066 33.7163 82.3208 33.4513C82.435 33.1864 82.4959 32.9015 82.5 32.613Z" fill="#A50025"/>
<path d="M55.6381 48.272C55.925 48.2803 56.2108 48.2315 56.4787 48.1284C56.7466 48.0253 56.9914 47.87 57.1987 47.6714C57.4061 47.4728 57.5718 47.235 57.6864 46.9718C57.801 46.7085 57.8621 46.4252 57.8661 46.1381V33.8368C57.8184 33.282 57.5619 32.766 57.1482 32.3932C56.7346 32.0203 56.1948 31.8185 55.6381 31.8285C55.3511 31.8243 55.0661 31.8773 54.7998 31.9842C54.5335 32.0912 54.2911 32.25 54.0867 32.4515C53.8823 32.6529 53.7199 32.8931 53.6092 33.1578C53.4984 33.4226 53.4414 33.7067 53.4414 33.9938V46.295C53.489 46.8415 53.7423 47.3495 54.15 47.7165C54.5578 48.0835 55.0896 48.282 55.6381 48.272Z" fill="#A50025"/>
<path d="M45 48.8972C43.1589 50.009 41.0406 50.5649 38.896 50.4991C36.7355 50.6765 34.5792 50.1094 32.7794 48.8903C30.9796 47.6712 29.6428 45.8723 28.9872 43.7875H26.25V40.8045H28.4398C28.4398 40.4455 28.4398 40.0864 28.4398 39.6997C28.4118 39.2214 28.4118 38.7418 28.4398 38.2635H26.25V35.2529H28.9872C29.6785 33.197 31.0265 31.4307 32.8197 30.231C34.613 29.0314 36.7501 28.4662 38.896 28.6241C40.9725 28.576 43.0238 29.0911 44.8358 30.1156L43.7135 33.2919C42.2855 32.5641 40.7143 32.1678 39.115 32.1319C37.9391 32.0154 36.7553 32.2488 35.7094 32.8035C34.6636 33.3581 33.8016 34.2096 33.2299 35.2529H42.0985L41.4142 38.2635H32.4635C32.4345 38.6865 32.4345 39.111 32.4635 39.534C32.4354 39.957 32.4354 40.3815 32.4635 40.8045H40.2646L39.6898 43.7875H33.2847C33.8417 44.8312 34.6929 45.6848 35.7307 46.2403C36.7685 46.7959 37.9462 47.0284 39.115 46.9085C40.8434 46.9993 42.5592 46.5665 44.042 45.6656L45 48.8972Z" fill="#A50025"/>
</g>
<defs>
<clipPath id="clip0_1454_3032">
<rect width="75" height="75" fill="white" transform="translate(7.5 0.5)"/>
</clipPath>
</defs>
</svg>
